# Max2Obj Version 4.0 Mar 10th, 2001
#
# object Cone01 to come ...
#
v  0.000000 -0.700000 0.000000
v  1.200000 -0.700000 0.000000
v  1.159111 -0.700000 -0.310583
v  1.039230 -0.700000 -0.600000
v  0.848528 -0.700000 -0.848528
v  0.600000 -0.700000 -1.039231
v  0.310583 -0.700000 -1.159111
v  -0.000000 -0.700000 -1.200000
v  -0.310583 -0.700000 -1.159111
v  -0.600000 -0.700000 -1.039230
v  -0.848528 -0.700000 -0.848528
v  -1.039231 -0.700000 -0.600000
v  -1.159111 -0.700000 -0.310583
v  -1.200000 -0.700000 0.000000
v  -1.159111 -0.700000 0.310583
v  -1.039230 -0.700000 0.600000
v  -0.848528 -0.700000 0.848528
v  -0.600000 -0.700000 1.039231
v  -0.310583 -0.700000 1.159111
v  0.000000 -0.700000 1.200000
v  0.310583 -0.700000 1.159111
v  0.600000 -0.700000 1.039230
v  0.848528 -0.700000 0.848528
v  1.039231 -0.700000 0.600000
v  1.159111 -0.700000 0.310583
v  1.420000 -0.200000 0.000000
v  1.371615 -0.200000 -0.367523
v  1.229756 -0.200000 -0.710000
v  1.004092 -0.200000 -1.004092
v  0.710000 -0.200000 -1.229756
v  0.367523 -0.200000 -1.371615
v  -0.000000 -0.200000 -1.420000
v  -0.367523 -0.200000 -1.371615
v  -0.710000 -0.200000 -1.229756
v  -1.004092 -0.200000 -1.004092
v  -1.229756 -0.200000 -0.710000
v  -1.371615 -0.200000 -0.367523
v  -1.420000 -0.200000 0.000000
v  -1.371615 -0.200000 0.367523
v  -1.229756 -0.200000 0.710000
v  -1.004092 -0.200000 1.004092
v  -0.710000 -0.200000 1.229756
v  -0.367523 -0.200000 1.371615
v  0.000000 -0.200000 1.420000
v  0.367523 -0.200000 1.371615
v  0.710000 -0.200000 1.229756
v  1.004092 -0.200000 1.004092
v  1.229756 -0.200000 0.710000
v  1.371615 -0.200000 0.367523
v  1.640000 0.300000 0.000000
v  1.584118 0.300000 -0.424463
v  1.420282 0.300000 -0.820000
v  1.159655 0.300000 -1.159655
v  0.820000 0.300000 -1.420282
v  0.424463 0.300000 -1.584118
v  -0.000000 0.300000 -1.640000
v  -0.424463 0.300000 -1.584118
v  -0.820000 0.300000 -1.420282
v  -1.159655 0.300000 -1.159655
v  -1.420282 0.300000 -0.820000
v  -1.584118 0.300000 -0.424463
v  -1.640000 0.300000 0.000000
v  -1.584118 0.300000 0.424463
v  -1.420282 0.300000 0.820000
v  -1.159655 0.300000 1.159655
v  -0.820000 0.300000 1.420282
v  -0.424463 0.300000 1.584118
v  0.000000 0.300000 1.640000
v  0.424463 0.300000 1.584118
v  0.820000 0.300000 1.420282
v  1.159655 0.300000 1.159655
v  1.420282 0.300000 0.820000
v  1.584118 0.300000 0.424463
v  1.860000 0.800000 0.000000
v  1.796622 0.800000 -0.481403
v  1.610807 0.800000 -0.930000
v  1.315219 0.800000 -1.315219
v  0.930000 0.800000 -1.610807
v  0.481403 0.800000 -1.796622
v  -0.000000 0.800000 -1.860000
v  -0.481404 0.800000 -1.796622
v  -0.930000 0.800000 -1.610807
v  -1.315219 0.800000 -1.315219
v  -1.610807 0.800000 -0.930000
v  -1.796622 0.800000 -0.481403
v  -1.860000 0.800000 0.000000
v  -1.796622 0.800000 0.481404
v  -1.610807 0.800000 0.930000
v  -1.315218 0.800000 1.315219
v  -0.930000 0.800000 1.610807
v  -0.481403 0.800000 1.796622
v  0.000000 0.800000 1.860000
v  0.481404 0.800000 1.796622
v  0.930000 0.800000 1.610807
v  1.315219 0.800000 1.315218
v  1.610807 0.800000 0.930000
v  1.796622 0.800000 0.481403
v  2.080000 1.300000 0.000000
v  2.009126 1.300000 -0.538344
v  1.801333 1.300000 -1.040000
v  1.470782 1.300000 -1.470782
v  1.040000 1.300000 -1.801333
v  0.538344 1.300000 -2.009126
v  -0.000000 1.300000 -2.080000
v  -0.538344 1.300000 -2.009126
v  -1.040000 1.300000 -1.801333
v  -1.470782 1.300000 -1.470782
v  -1.801333 1.300000 -1.040000
v  -2.009126 1.300000 -0.538343
v  -2.080000 1.300000 0.000000
v  -2.009126 1.300000 0.538344
v  -1.801333 1.300000 1.040000
v  -1.470782 1.300000 1.470782
v  -1.040000 1.300000 1.801333
v  -0.538343 1.300000 2.009126
v  0.000000 1.300000 2.080000
v  0.538344 1.300000 2.009125
v  1.040000 1.300000 1.801333
v  1.470782 1.300000 1.470782
v  1.801333 1.300000 1.040000
v  2.009126 1.300000 0.538343
v  2.300000 1.800000 0.000000
v  2.221629 1.800000 -0.595284
v  1.991858 1.800000 -1.150000
v  1.626346 1.800000 -1.626346
v  1.150000 1.800000 -1.991858
v  0.595284 1.800000 -2.221629
v  -0.000000 1.800000 -2.300000
v  -0.595284 1.800000 -2.221629
v  -1.150000 1.800000 -1.991858
v  -1.626346 1.800000 -1.626346
v  -1.991858 1.800000 -1.150000
v  -2.221629 1.800000 -0.595284
v  -2.300000 1.800000 0.000000
v  -2.221629 1.800000 0.595284
v  -1.991858 1.800000 1.150000
v  -1.626345 1.800000 1.626346
v  -1.150000 1.800000 1.991858
v  -0.595284 1.800000 2.221629
v  0.000000 1.800000 2.300000
v  0.595284 1.800000 2.221629
v  1.150000 1.800000 1.991858
v  1.626346 1.800000 1.626345
v  1.991859 1.800000 1.150000
v  2.221629 1.800000 0.595283
v  0.000000 1.800000 0.000000
# 146 vertices

vn  0.000000 -1.000000 0.000000
vn  0.000000 -2.879793 0.000000
vn  0.000000 -2.879793 0.000000
vn  0.000000 -2.879794 0.000000
vn  0.000000 -2.879793 0.000000
vn  0.000000 -2.879793 0.000000
vn  0.000000 -2.879793 0.000000
vn  0.000000 -2.879793 0.000000
vn  0.000000 -2.879793 0.000000
vn  0.000000 -2.879793 0.000000
vn  0.000000 -2.879793 0.000000
vn  0.000000 -2.879793 0.000000
vn  0.000000 -2.879794 0.000000
vn  0.000000 -2.879793 0.000000
vn  0.000000 -2.879793 0.000000
vn  0.000000 -2.879793 0.000000
vn  0.000000 -2.879793 0.000000
vn  0.000000 -2.879793 0.000000
vn  0.000000 -2.879794 0.000000
vn  0.000000 -2.879793 0.000000
vn  0.000000 -2.879793 0.000000
vn  0.000000 -2.879793 0.000000
vn  0.000000 -2.879793 0.000000
vn  0.000000 -2.879794 0.000000
vn  0.000000 -2.879793 0.000000
vn  0.915315 -0.402739 -0.000000
vn  0.884126 -0.402739 -0.236901
vn  0.792686 -0.402739 -0.457658
vn  0.647225 -0.402739 -0.647225
vn  0.457658 -0.402739 -0.792686
vn  0.236901 -0.402739 -0.884126
vn  -0.000000 -0.402739 -0.915315
vn  -0.236901 -0.402739 -0.884126
vn  -0.457658 -0.402739 -0.792686
vn  -0.647225 -0.402739 -0.647225
vn  -0.792686 -0.402739 -0.457657
vn  -0.884126 -0.402739 -0.236901
vn  -0.915315 -0.402739 0.000000
vn  -0.884126 -0.402739 0.236901
vn  -0.792686 -0.402739 0.457658
vn  -0.647225 -0.402739 0.647226
vn  -0.457657 -0.402739 0.792686
vn  -0.236901 -0.402739 0.884126
vn  0.000000 -0.402739 0.915315
vn  0.236901 -0.402739 0.884126
vn  0.457658 -0.402739 0.792686
vn  0.647226 -0.402739 0.647225
vn  0.792686 -0.402739 0.457657
vn  0.884126 -0.402739 0.236901
vn  0.915315 -0.402739 0.000000
vn  0.884126 -0.402739 -0.236901
vn  0.792686 -0.402739 -0.457658
vn  0.647225 -0.402739 -0.647225
vn  0.457657 -0.402739 -0.792686
vn  0.236901 -0.402739 -0.884126
vn  -0.000000 -0.402739 -0.915315
vn  -0.236901 -0.402739 -0.884126
vn  -0.457658 -0.402739 -0.792686
vn  -0.647226 -0.402739 -0.647225
vn  -0.792686 -0.402739 -0.457657
vn  -0.884126 -0.402739 -0.236901
vn  -0.915315 -0.402739 0.000000
vn  -0.884126 -0.402739 0.236901
vn  -0.792686 -0.402739 0.457658
vn  -0.647225 -0.402739 0.647225
vn  -0.457657 -0.402739 0.792686
vn  -0.236901 -0.402739 0.884126
vn  0.000000 -0.402739 0.915315
vn  0.236901 -0.402739 0.884126
vn  0.457658 -0.402739 0.792686
vn  0.647226 -0.402739 0.647225
vn  0.792686 -0.402739 0.457657
vn  0.884126 -0.402739 0.236901
vn  0.915315 -0.402739 -0.000000
vn  0.884126 -0.402739 -0.236901
vn  0.792686 -0.402739 -0.457658
vn  0.647225 -0.402739 -0.647225
vn  0.457657 -0.402739 -0.792686
vn  0.236901 -0.402739 -0.884126
vn  0.000000 -0.402739 -0.915315
vn  -0.236901 -0.402739 -0.884126
vn  -0.457658 -0.402739 -0.792686
vn  -0.647226 -0.402739 -0.647225
vn  -0.792686 -0.402739 -0.457657
vn  -0.884126 -0.402739 -0.236901
vn  -0.915315 -0.402739 -0.000000
vn  -0.884126 -0.402739 0.236901
vn  -0.792686 -0.402739 0.457658
vn  -0.647225 -0.402739 0.647226
vn  -0.457657 -0.402739 0.792686
vn  -0.236901 -0.402739 0.884126
vn  0.000000 -0.402739 0.915315
vn  0.236901 -0.402739 0.884126
vn  0.457658 -0.402739 0.792686
vn  0.647226 -0.402739 0.647225
vn  0.792686 -0.402739 0.457657
vn  0.884126 -0.402739 0.236901
vn  0.915315 -0.402739 0.000000
vn  0.884126 -0.402739 -0.236901
vn  0.792686 -0.402739 -0.457658
vn  0.647225 -0.402739 -0.647225
vn  0.457658 -0.402739 -0.792686
vn  0.236901 -0.402739 -0.884126
vn  -0.000000 -0.402739 -0.915315
vn  -0.236901 -0.402739 -0.884126
vn  -0.457658 -0.402739 -0.792686
vn  -0.647225 -0.402739 -0.647225
vn  -0.792686 -0.402739 -0.457657
vn  -0.884126 -0.402739 -0.236901
vn  -0.915315 -0.402739 -0.000000
vn  -0.884126 -0.402739 0.236901
vn  -0.792686 -0.402739 0.457658
vn  -0.647225 -0.402739 0.647226
vn  -0.457657 -0.402739 0.792686
vn  -0.236901 -0.402739 0.884126
vn  0.000000 -0.402739 0.915315
vn  0.236901 -0.402739 0.884126
vn  0.457658 -0.402739 0.792686
vn  0.647226 -0.402739 0.647225
vn  0.792686 -0.402739 0.457657
vn  0.884127 -0.402738 0.236901
vn  2.759308 -1.214096 0.000000
vn  2.665287 -1.214096 -0.714162
vn  2.389631 -1.214096 -1.379654
vn  1.951125 -1.214096 -1.951126
vn  1.379654 -1.214096 -2.389631
vn  0.714161 -1.214096 -2.665287
vn  -0.000000 -1.214096 -2.759308
vn  -0.714162 -1.214096 -2.665287
vn  -1.379654 -1.214096 -2.389631
vn  -1.951126 -1.214096 -1.951125
vn  -2.389631 -1.214096 -1.379654
vn  -2.665287 -1.214096 -0.714161
vn  -2.759308 -1.214096 0.000000
vn  -2.665287 -1.214096 0.714162
vn  -2.389631 -1.214095 1.379655
vn  -1.951125 -1.214096 1.951126
vn  -1.379654 -1.214096 2.389632
vn  -0.714161 -1.214096 2.665287
vn  0.000000 -1.214096 2.759308
vn  0.714162 -1.214096 2.665286
vn  1.379655 -1.214096 2.389631
vn  1.951126 -1.214096 1.951126
vn  2.389631 -1.214096 1.379654
vn  2.665287 -1.214096 0.714161
vn  0.000000 1.000000 0.000000
# 146 vertex normals

g Cone01
f 1//1 3//3 2//2
f 1//1 4//4 3//3
f 1//1 5//5 4//4
f 1//1 6//6 5//5
f 1//1 7//7 6//6
f 1//1 8//8 7//7
f 1//1 9//9 8//8
f 1//1 10//10 9//9
f 1//1 11//11 10//10
f 1//1 12//12 11//11
f 1//1 13//13 12//12
f 1//1 14//14 13//13
f 1//1 15//15 14//14
f 1//1 16//16 15//15
f 1//1 17//17 16//16
f 1//1 18//18 17//17
f 1//1 19//19 18//18
f 1//1 20//20 19//19
f 1//1 21//21 20//20
f 1//1 22//22 21//21
f 1//1 23//23 22//22
f 1//1 24//24 23//23
f 1//1 25//25 24//24
f 1//1 2//2 25//25
f 2//2 27//27 26//26
f 2//2 3//3 27//27
f 3//3 28//28 27//27
f 3//3 4//4 28//28
f 4//4 29//29 28//28
f 4//4 5//5 29//29
f 5//5 30//30 29//29
f 5//5 6//6 30//30
f 6//6 31//31 30//30
f 6//6 7//7 31//31
f 7//7 32//32 31//31
f 7//7 8//8 32//32
f 8//8 33//33 32//32
f 8//8 9//9 33//33
f 9//9 34//34 33//33
f 9//9 10//10 34//34
f 10//10 35//35 34//34
f 10//10 11//11 35//35
f 11//11 36//36 35//35
f 11//11 12//12 36//36
f 12//12 37//37 36//36
f 12//12 13//13 37//37
f 13//13 38//38 37//37
f 13//13 14//14 38//38
f 14//14 39//39 38//38
f 14//14 15//15 39//39
f 15//15 40//40 39//39
f 15//15 16//16 40//40
f 16//16 41//41 40//40
f 16//16 17//17 41//41
f 17//17 42//42 41//41
f 17//17 18//18 42//42
f 18//18 43//43 42//42
f 18//18 19//19 43//43
f 19//19 44//44 43//43
f 19//19 20//20 44//44
f 20//20 45//45 44//44
f 20//20 21//21 45//45
f 21//21 46//46 45//45
f 21//21 22//22 46//46
f 22//22 47//47 46//46
f 22//22 23//23 47//47
f 23//23 48//48 47//47
f 23//23 24//24 48//48
f 24//24 49//49 48//48
f 24//24 25//25 49//49
f 25//25 26//26 49//49
f 25//25 2//2 26//26
f 26//26 51//51 50//50
f 26//26 27//27 51//51
f 27//27 52//52 51//51
f 27//27 28//28 52//52
f 28//28 53//53 52//52
f 28//28 29//29 53//53
f 29//29 54//54 53//53
f 29//29 30//30 54//54
f 30//30 55//55 54//54
f 30//30 31//31 55//55
f 31//31 56//56 55//55
f 31//31 32//32 56//56
f 32//32 57//57 56//56
f 32//32 33//33 57//57
f 33//33 58//58 57//57
f 33//33 34//34 58//58
f 34//34 59//59 58//58
f 34//34 35//35 59//59
f 35//35 60//60 59//59
f 35//35 36//36 60//60
f 36//36 61//61 60//60
f 36//36 37//37 61//61
f 37//37 62//62 61//61
f 37//37 38//38 62//62
f 38//38 63//63 62//62
f 38//38 39//39 63//63
f 39//39 64//64 63//63
f 39//39 40//40 64//64
f 40//40 65//65 64//64
f 40//40 41//41 65//65
f 41//41 66//66 65//65
f 41//41 42//42 66//66
f 42//42 67//67 66//66
f 42//42 43//43 67//67
f 43//43 68//68 67//67
f 43//43 44//44 68//68
f 44//44 69//69 68//68
f 44//44 45//45 69//69
f 45//45 70//70 69//69
f 45//45 46//46 70//70
f 46//46 71//71 70//70
f 46//46 47//47 71//71
f 47//47 72//72 71//71
f 47//47 48//48 72//72
f 48//48 73//73 72//72
f 48//48 49//49 73//73
f 49//49 50//50 73//73
f 49//49 26//26 50//50
f 50//50 75//75 74//74
f 50//50 51//51 75//75
f 51//51 76//76 75//75
f 51//51 52//52 76//76
f 52//52 77//77 76//76
f 52//52 53//53 77//77
f 53//53 78//78 77//77
f 53//53 54//54 78//78
f 54//54 79//79 78//78
f 54//54 55//55 79//79
f 55//55 80//80 79//79
f 55//55 56//56 80//80
f 56//56 81//81 80//80
f 56//56 57//57 81//81
f 57//57 82//82 81//81
f 57//57 58//58 82//82
f 58//58 83//83 82//82
f 58//58 59//59 83//83
f 59//59 84//84 83//83
f 59//59 60//60 84//84
f 60//60 85//85 84//84
f 60//60 61//61 85//85
f 61//61 86//86 85//85
f 61//61 62//62 86//86
f 62//62 87//87 86//86
f 62//62 63//63 87//87
f 63//63 88//88 87//87
f 63//63 64//64 88//88
f 64//64 89//89 88//88
f 64//64 65//65 89//89
f 65//65 90//90 89//89
f 65//65 66//66 90//90
f 66//66 91//91 90//90
f 66//66 67//67 91//91
f 67//67 92//92 91//91
f 67//67 68//68 92//92
f 68//68 93//93 92//92
f 68//68 69//69 93//93
f 69//69 94//94 93//93
f 69//69 70//70 94//94
f 70//70 95//95 94//94
f 70//70 71//71 95//95
f 71//71 96//96 95//95
f 71//71 72//72 96//96
f 72//72 97//97 96//96
f 72//72 73//73 97//97
f 73//73 74//74 97//97
f 73//73 50//50 74//74
f 74//74 99//99 98//98
f 74//74 75//75 99//99
f 75//75 100//100 99//99
f 75//75 76//76 100//100
f 76//76 101//101 100//100
f 76//76 77//77 101//101
f 77//77 102//102 101//101
f 77//77 78//78 102//102
f 78//78 103//103 102//102
f 78//78 79//79 103//103
f 79//79 104//104 103//103
f 79//79 80//80 104//104
f 80//80 105//105 104//104
f 80//80 81//81 105//105
f 81//81 106//106 105//105
f 81//81 82//82 106//106
f 82//82 107//107 106//106
f 82//82 83//83 107//107
f 83//83 108//108 107//107
f 83//83 84//84 108//108
f 84//84 109//109 108//108
f 84//84 85//85 109//109
f 85//85 110//110 109//109
f 85//85 86//86 110//110
f 86//86 111//111 110//110
f 86//86 87//87 111//111
f 87//87 112//112 111//111
f 87//87 88//88 112//112
f 88//88 113//113 112//112
f 88//88 89//89 113//113
f 89//89 114//114 113//113
f 89//89 90//90 114//114
f 90//90 115//115 114//114
f 90//90 91//91 115//115
f 91//91 116//116 115//115
f 91//91 92//92 116//116
f 92//92 117//117 116//116
f 92//92 93//93 117//117
f 93//93 118//118 117//117
f 93//93 94//94 118//118
f 94//94 119//119 118//118
f 94//94 95//95 119//119
f 95//95 120//120 119//119
f 95//95 96//96 120//120
f 96//96 121//121 120//120
f 96//96 97//97 121//121
f 97//97 98//98 121//121
f 97//97 74//74 98//98
f 98//98 123//123 122//122
f 98//98 99//99 123//123
f 99//99 124//124 123//123
f 99//99 100//100 124//124
f 100//100 125//125 124//124
f 100//100 101//101 125//125
f 101//101 126//126 125//125
f 101//101 102//102 126//126
f 102//102 127//127 126//126
f 102//102 103//103 127//127
f 103//103 128//128 127//127
f 103//103 104//104 128//128
f 104//104 129//129 128//128
f 104//104 105//105 129//129
f 105//105 130//130 129//129
f 105//105 106//106 130//130
f 106//106 131//131 130//130
f 106//106 107//107 131//131
f 107//107 132//132 131//131
f 107//107 108//108 132//132
f 108//108 133//133 132//132
f 108//108 109//109 133//133
f 109//109 134//134 133//133
f 109//109 110//110 134//134
f 110//110 135//135 134//134
f 110//110 111//111 135//135
f 111//111 136//136 135//135
f 111//111 112//112 136//136
f 112//112 137//137 136//136
f 112//112 113//113 137//137
f 113//113 138//138 137//137
f 113//113 114//114 138//138
f 114//114 139//139 138//138
f 114//114 115//115 139//139
f 115//115 140//140 139//139
f 115//115 116//116 140//140
f 116//116 141//141 140//140
f 116//116 117//117 141//141
f 117//117 142//142 141//141
f 117//117 118//118 142//142
f 118//118 143//143 142//142
f 118//118 119//119 143//143
f 119//119 144//144 143//143
f 119//119 120//120 144//144
f 120//120 145//145 144//144
f 120//120 121//121 145//145
f 121//121 122//122 145//145
f 121//121 98//98 122//122
f 146//146 122//122 123//123
f 146//146 123//123 124//124
f 146//146 124//124 125//125
f 146//146 125//125 126//126
f 146//146 126//126 127//127
f 146//146 127//127 128//128
f 146//146 128//128 129//129
f 146//146 129//129 130//130
f 146//146 130//130 131//131
f 146//146 131//131 132//132
f 146//146 132//132 133//133
f 146//146 133//133 134//134
f 146//146 134//134 135//135
f 146//146 135//135 136//136
f 146//146 136//136 137//137
f 146//146 137//137 138//138
f 146//146 138//138 139//139
f 146//146 139//139 140//140
f 146//146 140//140 141//141
f 146//146 141//141 142//142
f 146//146 142//142 143//143
f 146//146 143//143 144//144
f 146//146 144//144 145//145
f 146//146 145//145 122//122
# 288 faces

g
